<mxfile host="65bd71144e">
    <diagram id="OCsXrL1rOBSBL563rCo6" name="Device Initialization">
        <mxGraphModel dx="1130" dy="526" grid="1" gridSize="10" guides="1" tooltips="1" connect="1" arrows="1" fold="1" page="1" pageScale="1" pageWidth="850" pageHeight="1100" math="0" shadow="0">
            <root>
                <mxCell id="0"/>
                <mxCell id="1" parent="0"/>
                <mxCell id="2" value="Start" style="ellipse;whiteSpace=wrap;html=1;aspect=fixed;" vertex="1" parent="1">
                    <mxGeometry x="390" y="20" width="70" height="70" as="geometry"/>
                </mxCell>
                <mxCell id="3" value="" style="endArrow=classic;html=1;exitX=0.5;exitY=1;exitDx=0;exitDy=0;" edge="1" parent="1" source="2">
                    <mxGeometry width="50" height="50" relative="1" as="geometry">
                        <mxPoint x="380" y="170" as="sourcePoint"/>
                        <mxPoint x="425" y="120" as="targetPoint"/>
                    </mxGeometry>
                </mxCell>
                <mxCell id="36" value="" style="edgeStyle=none;html=1;" edge="1" parent="1" source="4" target="7">
                    <mxGeometry relative="1" as="geometry"/>
                </mxCell>
                <mxCell id="4" value="Initialize&lt;br&gt;WiFi &amp;amp; ThingSpeak&lt;br&gt;Connection" style="shape=parallelogram;perimeter=parallelogramPerimeter;whiteSpace=wrap;html=1;fixedSize=1;" vertex="1" parent="1">
                    <mxGeometry x="358" y="300" width="135" height="60" as="geometry"/>
                </mxCell>
                <mxCell id="13" value="" style="edgeStyle=none;html=1;" edge="1" parent="1" source="7" target="42">
                    <mxGeometry relative="1" as="geometry">
                        <mxPoint x="425" y="510" as="targetPoint"/>
                    </mxGeometry>
                </mxCell>
                <mxCell id="7" value="Confirm&lt;br&gt;Connection" style="rhombus;whiteSpace=wrap;html=1;" vertex="1" parent="1">
                    <mxGeometry x="385" y="390" width="80" height="90" as="geometry"/>
                </mxCell>
                <mxCell id="33" value="" style="edgeStyle=none;html=1;" edge="1" parent="1" source="29" target="32">
                    <mxGeometry relative="1" as="geometry"/>
                </mxCell>
                <mxCell id="29" value="Initialize&lt;br&gt;Bluetooth&lt;br&gt;Connection&lt;br&gt;&amp;nbsp;to Phone" style="shape=parallelogram;perimeter=parallelogramPerimeter;whiteSpace=wrap;html=1;fixedSize=1;" vertex="1" parent="1">
                    <mxGeometry x="365" y="120" width="120" height="60" as="geometry"/>
                </mxCell>
                <mxCell id="vvjbod-jWDwlhTD5uGIu-42" value="" style="edgeStyle=none;html=1;" edge="1" parent="1" source="32">
                    <mxGeometry relative="1" as="geometry">
                        <mxPoint x="425" y="300" as="targetPoint"/>
                    </mxGeometry>
                </mxCell>
                <mxCell id="32" value="Collect WiFi and&amp;nbsp;&lt;br&gt;ThingSpeak Credentials" style="whiteSpace=wrap;html=1;" vertex="1" parent="1">
                    <mxGeometry x="365" y="210" width="120" height="60" as="geometry"/>
                </mxCell>
                <mxCell id="38" value="Credentials Incorrect" style="whiteSpace=wrap;html=1;" vertex="1" parent="1">
                    <mxGeometry x="220" y="307.5" width="105" height="45" as="geometry"/>
                </mxCell>
                <mxCell id="41" value="" style="endArrow=classic;html=1;exitX=0;exitY=0.5;exitDx=0;exitDy=0;entryX=0.5;entryY=1;entryDx=0;entryDy=0;" edge="1" parent="1" source="7" target="38">
                    <mxGeometry width="50" height="50" relative="1" as="geometry">
                        <mxPoint x="450" y="410" as="sourcePoint"/>
                        <mxPoint x="500" y="360" as="targetPoint"/>
                        <Array as="points">
                            <mxPoint x="273" y="435"/>
                        </Array>
                    </mxGeometry>
                </mxCell>
                <mxCell id="42" value="Sampling" style="ellipse;whiteSpace=wrap;html=1;" vertex="1" parent="1">
                    <mxGeometry x="383" y="510" width="84.5" height="50" as="geometry"/>
                </mxCell>
                <mxCell id="vvjbod-jWDwlhTD5uGIu-44" value="" style="endArrow=classic;html=1;entryX=0;entryY=0.5;entryDx=0;entryDy=0;" edge="1" parent="1" target="32">
                    <mxGeometry width="50" height="50" relative="1" as="geometry">
                        <mxPoint x="273" y="307" as="sourcePoint"/>
                        <mxPoint x="490" y="320" as="targetPoint"/>
                        <Array as="points">
                            <mxPoint x="273" y="240"/>
                        </Array>
                    </mxGeometry>
                </mxCell>
                <mxCell id="HSw5KU4c9WGk9Z5Ej44h-44" value="" style="edgeStyle=none;html=1;" edge="1" parent="1" source="HSw5KU4c9WGk9Z5Ej44h-42" target="29">
                    <mxGeometry relative="1" as="geometry"/>
                </mxCell>
                <mxCell id="HSw5KU4c9WGk9Z5Ej44h-42" value="Initialization" style="ellipse;whiteSpace=wrap;html=1;" vertex="1" parent="1">
                    <mxGeometry x="227.5" y="125" width="90" height="50" as="geometry"/>
                </mxCell>
            </root>
        </mxGraphModel>
    </diagram>
    <diagram id="ScX6hd-UIiFhUqMTKY4a" name="Sampling">
        <mxGraphModel dx="1130" dy="526" grid="1" gridSize="10" guides="1" tooltips="1" connect="1" arrows="1" fold="1" page="1" pageScale="1" pageWidth="850" pageHeight="1100" math="0" shadow="0">
            <root>
                <mxCell id="9ZokUizVB9DD7m5dpZID-0"/>
                <mxCell id="9ZokUizVB9DD7m5dpZID-1" parent="9ZokUizVB9DD7m5dpZID-0"/>
                <mxCell id="9ZokUizVB9DD7m5dpZID-4" value="" style="edgeStyle=none;html=1;" edge="1" parent="9ZokUizVB9DD7m5dpZID-1" source="9ZokUizVB9DD7m5dpZID-2" target="9ZokUizVB9DD7m5dpZID-3">
                    <mxGeometry relative="1" as="geometry"/>
                </mxCell>
                <mxCell id="9ZokUizVB9DD7m5dpZID-2" value="Sampling" style="ellipse;whiteSpace=wrap;html=1;" vertex="1" parent="9ZokUizVB9DD7m5dpZID-1">
                    <mxGeometry x="385" y="20" width="80" height="60" as="geometry"/>
                </mxCell>
                <mxCell id="pEAi6ZniOT8bRjCbfyuK-2" value="" style="edgeStyle=none;html=1;entryX=0.5;entryY=0;entryDx=0;entryDy=0;" edge="1" parent="9ZokUizVB9DD7m5dpZID-1" source="9ZokUizVB9DD7m5dpZID-3">
                    <mxGeometry relative="1" as="geometry">
                        <mxPoint x="425" y="190" as="targetPoint"/>
                    </mxGeometry>
                </mxCell>
                <mxCell id="9ZokUizVB9DD7m5dpZID-3" value="Define Wake-Up sources for Deep Sleep&amp;nbsp;" style="whiteSpace=wrap;html=1;" vertex="1" parent="9ZokUizVB9DD7m5dpZID-1">
                    <mxGeometry x="363" y="110" width="125" height="50" as="geometry"/>
                </mxCell>
                <mxCell id="pEAi6ZniOT8bRjCbfyuK-0" value="Wake-up Sources: Timer&lt;br&gt;&lt;span style=&quot;white-space: pre&quot;&gt;&#9;&lt;/span&gt;&lt;span style=&quot;white-space: pre&quot;&gt;&#9;&lt;/span&gt;&lt;span style=&quot;white-space: pre&quot;&gt;&#9;&lt;/span&gt;&lt;span style=&quot;white-space: pre&quot;&gt;&#9;&lt;/span&gt;&lt;span style=&quot;white-space: pre&quot;&gt;&#9;&lt;/span&gt;&lt;span style=&quot;white-space: pre&quot;&gt;&#9;&lt;/span&gt;External Button" style="text;html=1;align=center;verticalAlign=middle;resizable=0;points=[];autosize=1;strokeColor=none;" vertex="1" parent="9ZokUizVB9DD7m5dpZID-1">
                    <mxGeometry x="430" y="110" width="260" height="30" as="geometry"/>
                </mxCell>
                <mxCell id="pEAi6ZniOT8bRjCbfyuK-7" value="" style="edgeStyle=none;html=1;" edge="1" parent="9ZokUizVB9DD7m5dpZID-1" source="pEAi6ZniOT8bRjCbfyuK-4" target="pEAi6ZniOT8bRjCbfyuK-6">
                    <mxGeometry relative="1" as="geometry"/>
                </mxCell>
                <mxCell id="pEAi6ZniOT8bRjCbfyuK-4" value="Take Sample from Sensor" style="whiteSpace=wrap;html=1;" vertex="1" parent="9ZokUizVB9DD7m5dpZID-1">
                    <mxGeometry x="365" y="390" width="120" height="40" as="geometry"/>
                </mxCell>
                <mxCell id="SWPA18qDtEiloS7H6sVU-14" value="" style="edgeStyle=none;html=1;" edge="1" parent="9ZokUizVB9DD7m5dpZID-1" source="pEAi6ZniOT8bRjCbfyuK-6" target="SWPA18qDtEiloS7H6sVU-13">
                    <mxGeometry relative="1" as="geometry"/>
                </mxCell>
                <mxCell id="pEAi6ZniOT8bRjCbfyuK-6" value="Send sample to flash memory" style="whiteSpace=wrap;html=1;" vertex="1" parent="9ZokUizVB9DD7m5dpZID-1">
                    <mxGeometry x="365" y="460" width="120" height="50" as="geometry"/>
                </mxCell>
                <mxCell id="pEAi6ZniOT8bRjCbfyuK-11" value="" style="edgeStyle=none;html=1;" edge="1" parent="9ZokUizVB9DD7m5dpZID-1" source="pEAi6ZniOT8bRjCbfyuK-8">
                    <mxGeometry relative="1" as="geometry">
                        <mxPoint x="300" y="745" as="targetPoint"/>
                    </mxGeometry>
                </mxCell>
                <mxCell id="Zq5nboJi9w4raEouKYX6-1" value="" style="edgeStyle=none;html=1;" edge="1" parent="9ZokUizVB9DD7m5dpZID-1" source="pEAi6ZniOT8bRjCbfyuK-8" target="Zq5nboJi9w4raEouKYX6-0">
                    <mxGeometry relative="1" as="geometry"/>
                </mxCell>
                <mxCell id="pEAi6ZniOT8bRjCbfyuK-8" value="Successfully uploaded to ThingSpeak" style="rhombus;whiteSpace=wrap;html=1;" vertex="1" parent="9ZokUizVB9DD7m5dpZID-1">
                    <mxGeometry x="368" y="690" width="115" height="110" as="geometry"/>
                </mxCell>
                <mxCell id="Zq5nboJi9w4raEouKYX6-25" value="" style="edgeStyle=none;html=1;entryX=0.5;entryY=1;entryDx=0;entryDy=0;" edge="1" parent="9ZokUizVB9DD7m5dpZID-1" source="Zq5nboJi9w4raEouKYX6-0" target="Zq5nboJi9w4raEouKYX6-31">
                    <mxGeometry relative="1" as="geometry">
                        <mxPoint x="615.25" y="500" as="targetPoint"/>
                    </mxGeometry>
                </mxCell>
                <mxCell id="Zq5nboJi9w4raEouKYX6-0" value="Enter Deep Sleep" style="whiteSpace=wrap;html=1;" vertex="1" parent="9ZokUizVB9DD7m5dpZID-1">
                    <mxGeometry x="560.5" y="730" width="109.5" height="30" as="geometry"/>
                </mxCell>
                <mxCell id="Zq5nboJi9w4raEouKYX6-2" value="Yes" style="text;html=1;align=center;verticalAlign=middle;resizable=0;points=[];autosize=1;strokeColor=none;" vertex="1" parent="9ZokUizVB9DD7m5dpZID-1">
                    <mxGeometry x="490" y="720" width="40" height="20" as="geometry"/>
                </mxCell>
                <mxCell id="Zq5nboJi9w4raEouKYX6-3" value="No" style="text;html=1;align=center;verticalAlign=middle;resizable=0;points=[];autosize=1;strokeColor=none;" vertex="1" parent="9ZokUizVB9DD7m5dpZID-1">
                    <mxGeometry x="315" y="720" width="30" height="20" as="geometry"/>
                </mxCell>
                <mxCell id="Zq5nboJi9w4raEouKYX6-8" value="" style="edgeStyle=none;html=1;" edge="1" parent="9ZokUizVB9DD7m5dpZID-1" source="Zq5nboJi9w4raEouKYX6-6" target="Zq5nboJi9w4raEouKYX6-7">
                    <mxGeometry relative="1" as="geometry"/>
                </mxCell>
                <mxCell id="SWPA18qDtEiloS7H6sVU-16" value="" style="edgeStyle=none;html=1;" edge="1" parent="9ZokUizVB9DD7m5dpZID-1" source="Zq5nboJi9w4raEouKYX6-6" target="Zq5nboJi9w4raEouKYX6-20">
                    <mxGeometry relative="1" as="geometry"/>
                </mxCell>
                <mxCell id="Zq5nboJi9w4raEouKYX6-6" value="WiFi&lt;br&gt;Connected" style="rhombus;whiteSpace=wrap;html=1;" vertex="1" parent="9ZokUizVB9DD7m5dpZID-1">
                    <mxGeometry x="200" y="697.5" width="100" height="95" as="geometry"/>
                </mxCell>
                <mxCell id="Zq5nboJi9w4raEouKYX6-11" value="" style="edgeStyle=none;html=1;" edge="1" parent="9ZokUizVB9DD7m5dpZID-1">
                    <mxGeometry relative="1" as="geometry">
                        <mxPoint x="250" y="960" as="sourcePoint"/>
                        <mxPoint x="250" y="960" as="targetPoint"/>
                    </mxGeometry>
                </mxCell>
                <mxCell id="Zq5nboJi9w4raEouKYX6-19" value="" style="edgeStyle=none;html=1;" edge="1" parent="9ZokUizVB9DD7m5dpZID-1" source="Zq5nboJi9w4raEouKYX6-7">
                    <mxGeometry relative="1" as="geometry">
                        <mxPoint x="100" y="830" as="targetPoint"/>
                    </mxGeometry>
                </mxCell>
                <mxCell id="Zq5nboJi9w4raEouKYX6-7" value="ThingSpeak&lt;br&gt;Connected" style="rhombus;whiteSpace=wrap;html=1;" vertex="1" parent="9ZokUizVB9DD7m5dpZID-1">
                    <mxGeometry x="50" y="697.5" width="100" height="95" as="geometry"/>
                </mxCell>
                <mxCell id="Zq5nboJi9w4raEouKYX6-9" value="Yes" style="text;html=1;align=center;verticalAlign=middle;resizable=0;points=[];autosize=1;strokeColor=none;" vertex="1" parent="9ZokUizVB9DD7m5dpZID-1">
                    <mxGeometry x="155" y="750" width="40" height="20" as="geometry"/>
                </mxCell>
                <mxCell id="Zq5nboJi9w4raEouKYX6-15" value="" style="endArrow=classic;html=1;exitX=0.5;exitY=0;exitDx=0;exitDy=0;entryX=0;entryY=0.5;entryDx=0;entryDy=0;" edge="1" parent="9ZokUizVB9DD7m5dpZID-1" source="Zq5nboJi9w4raEouKYX6-7" target="SWPA18qDtEiloS7H6sVU-13">
                    <mxGeometry width="50" height="50" relative="1" as="geometry">
                        <mxPoint x="420" y="590" as="sourcePoint"/>
                        <mxPoint x="470" y="540" as="targetPoint"/>
                        <Array as="points">
                            <mxPoint x="100" y="580"/>
                        </Array>
                    </mxGeometry>
                </mxCell>
                <mxCell id="Zq5nboJi9w4raEouKYX6-16" value="Yes" style="text;html=1;align=center;verticalAlign=middle;resizable=0;points=[];autosize=1;strokeColor=none;" vertex="1" parent="9ZokUizVB9DD7m5dpZID-1">
                    <mxGeometry x="65" y="600" width="40" height="20" as="geometry"/>
                </mxCell>
                <mxCell id="Zq5nboJi9w4raEouKYX6-17" value="No" style="text;html=1;align=center;verticalAlign=middle;resizable=0;points=[];autosize=1;strokeColor=none;" vertex="1" parent="9ZokUizVB9DD7m5dpZID-1">
                    <mxGeometry x="220" y="670" width="30" height="20" as="geometry"/>
                </mxCell>
                <mxCell id="SWPA18qDtEiloS7H6sVU-18" value="" style="edgeStyle=none;html=1;" edge="1" parent="9ZokUizVB9DD7m5dpZID-1" source="Zq5nboJi9w4raEouKYX6-20" target="SWPA18qDtEiloS7H6sVU-17">
                    <mxGeometry relative="1" as="geometry"/>
                </mxCell>
                <mxCell id="Zq5nboJi9w4raEouKYX6-20" value="Attempt WiFi Reconnect" style="rounded=0;whiteSpace=wrap;html=1;" vertex="1" parent="9ZokUizVB9DD7m5dpZID-1">
                    <mxGeometry x="195" y="610" width="110" height="40" as="geometry"/>
                </mxCell>
                <mxCell id="Zq5nboJi9w4raEouKYX6-30" value="&lt;span style=&quot;color: rgba(0 , 0 , 0 , 0) ; font-family: monospace ; font-size: 0px&quot;&gt;%3CmxGraphModel%3E%3Croot%3E%3CmxCell%20id%3D%220%22%2F%3E%3CmxCell%20id%3D%221%22%20parent%3D%220%22%2F%3E%3CmxCell%20id%3D%222%22%20value%3D%22Wait%20for%26lt%3Bbr%26gt%3B5%20mins%20timer%22%20style%3D%22rounded%3D0%3BwhiteSpace%3Dwrap%3Bhtml%3D1%3B%22%20vertex%3D%221%22%20parent%3D%221%22%3E%3CmxGeometry%20x%3D%22565.25%22%20y%3D%22385%22%20width%3D%22100%22%20height%3D%2230%22%20as%3D%22geometry%22%2F%3E%3C%2FmxCell%3E%3C%2Froot%3E%3C%2FmxGraphModel%3E&lt;/span&gt;&lt;span style=&quot;color: rgba(0 , 0 , 0 , 0) ; font-family: monospace ; font-size: 0px&quot;&gt;%3CmxGraphModel%3E%3Croot%3E%3CmxCell%20id%3D%220%22%2F%3E%3CmxCell%20id%3D%221%22%20parent%3D%220%22%2F%3E%3CmxCell%20id%3D%222%22%20value%3D%22Wait%20for%26lt%3Bbr%26gt%3B5%20mins%20timer%22%20style%3D%22rounded%3D0%3BwhiteSpace%3Dwrap%3Bhtml%3D1%3B%22%20vertex%3D%221%22%20parent%3D%221%22%3E%3CmxGeometry%20x%3D%22565.25%22%20y%3D%22385%22%20width%3D%22100%22%20height%3D%2230%22%20as%3D%22geometry%22%2F%3E%3C%2FmxCell%3E%3C%2Froot%3E%3C%2FmxGraphModel%3E&lt;/span&gt;" style="text;html=1;align=center;verticalAlign=middle;resizable=0;points=[];autosize=1;strokeColor=none;" vertex="1" parent="9ZokUizVB9DD7m5dpZID-1">
                    <mxGeometry x="650" y="200" width="20" height="20" as="geometry"/>
                </mxCell>
                <mxCell id="Zq5nboJi9w4raEouKYX6-34" value="" style="edgeStyle=none;html=1;entryX=1;entryY=0.5;entryDx=0;entryDy=0;" edge="1" parent="9ZokUizVB9DD7m5dpZID-1" source="Zq5nboJi9w4raEouKYX6-31" target="SWPA18qDtEiloS7H6sVU-27">
                    <mxGeometry relative="1" as="geometry">
                        <mxPoint x="475" y="210" as="targetPoint"/>
                        <Array as="points">
                            <mxPoint x="615" y="240"/>
                        </Array>
                    </mxGeometry>
                </mxCell>
                <mxCell id="Zq5nboJi9w4raEouKYX6-31" value="Wait for&lt;br&gt;5 mins timer" style="rounded=0;whiteSpace=wrap;html=1;" vertex="1" parent="9ZokUizVB9DD7m5dpZID-1">
                    <mxGeometry x="565.25" y="460" width="100" height="30" as="geometry"/>
                </mxCell>
                <mxCell id="Zq5nboJi9w4raEouKYX6-44" value="" style="edgeStyle=none;html=1;entryX=0.5;entryY=1;entryDx=0;entryDy=0;" edge="1" parent="9ZokUizVB9DD7m5dpZID-1" source="Zq5nboJi9w4raEouKYX6-41" target="SWPA18qDtEiloS7H6sVU-0">
                    <mxGeometry relative="1" as="geometry">
                        <mxPoint x="764.9999999999998" y="500" as="targetPoint"/>
                        <Array as="points">
                            <mxPoint x="765" y="530"/>
                        </Array>
                    </mxGeometry>
                </mxCell>
                <mxCell id="Zq5nboJi9w4raEouKYX6-41" value="" style="shape=waypoint;size=6;pointerEvents=1;points=[];fillColor=#2a2a2a;resizable=0;rotatable=0;perimeter=centerPerimeter;snapToPoint=1;rounded=0;" vertex="1" parent="9ZokUizVB9DD7m5dpZID-1">
                    <mxGeometry x="595.25" y="510" width="40" height="40" as="geometry"/>
                </mxCell>
                <mxCell id="SWPA18qDtEiloS7H6sVU-2" value="" style="edgeStyle=none;html=1;" edge="1" parent="9ZokUizVB9DD7m5dpZID-1" source="SWPA18qDtEiloS7H6sVU-0" target="SWPA18qDtEiloS7H6sVU-1">
                    <mxGeometry relative="1" as="geometry"/>
                </mxCell>
                <mxCell id="SWPA18qDtEiloS7H6sVU-7" value="" style="edgeStyle=none;html=1;" edge="1" parent="9ZokUizVB9DD7m5dpZID-1" source="SWPA18qDtEiloS7H6sVU-0" target="SWPA18qDtEiloS7H6sVU-6">
                    <mxGeometry relative="1" as="geometry"/>
                </mxCell>
                <mxCell id="SWPA18qDtEiloS7H6sVU-0" value="Button&amp;nbsp;&lt;br&gt;pressed&lt;br&gt;" style="rhombus;whiteSpace=wrap;html=1;" vertex="1" parent="9ZokUizVB9DD7m5dpZID-1">
                    <mxGeometry x="730" y="380" width="70" height="70" as="geometry"/>
                </mxCell>
                <mxCell id="SWPA18qDtEiloS7H6sVU-1" value="Initialization" style="ellipse;whiteSpace=wrap;html=1;rounded=0;" vertex="1" parent="9ZokUizVB9DD7m5dpZID-1">
                    <mxGeometry x="720" y="170" width="90" height="50" as="geometry"/>
                </mxCell>
                <mxCell id="SWPA18qDtEiloS7H6sVU-6" value="" style="shape=waypoint;size=6;pointerEvents=1;points=[];fillColor=#2a2a2a;resizable=0;rotatable=0;perimeter=centerPerimeter;snapToPoint=1;" vertex="1" parent="9ZokUizVB9DD7m5dpZID-1">
                    <mxGeometry x="595" y="395" width="40" height="40" as="geometry"/>
                </mxCell>
                <mxCell id="SWPA18qDtEiloS7H6sVU-8" value="No" style="text;html=1;align=center;verticalAlign=middle;resizable=0;points=[];autosize=1;strokeColor=none;" vertex="1" parent="9ZokUizVB9DD7m5dpZID-1">
                    <mxGeometry x="70" y="792.5" width="30" height="20" as="geometry"/>
                </mxCell>
                <mxCell id="SWPA18qDtEiloS7H6sVU-12" value="" style="edgeStyle=none;html=1;" edge="1" parent="9ZokUizVB9DD7m5dpZID-1" source="SWPA18qDtEiloS7H6sVU-10" target="SWPA18qDtEiloS7H6sVU-11">
                    <mxGeometry relative="1" as="geometry"/>
                </mxCell>
                <mxCell id="SWPA18qDtEiloS7H6sVU-10" value="Issue Credential&lt;br&gt;Warning&amp;nbsp;" style="rounded=0;whiteSpace=wrap;html=1;" vertex="1" parent="9ZokUizVB9DD7m5dpZID-1">
                    <mxGeometry x="40" y="830" width="110" height="40" as="geometry"/>
                </mxCell>
                <mxCell id="SWPA18qDtEiloS7H6sVU-11" value="Initialization" style="ellipse;whiteSpace=wrap;html=1;rounded=0;" vertex="1" parent="9ZokUizVB9DD7m5dpZID-1">
                    <mxGeometry x="42.5" y="900" width="105" height="50" as="geometry"/>
                </mxCell>
                <mxCell id="SWPA18qDtEiloS7H6sVU-15" value="" style="edgeStyle=none;html=1;" edge="1" parent="9ZokUizVB9DD7m5dpZID-1" source="SWPA18qDtEiloS7H6sVU-13" target="pEAi6ZniOT8bRjCbfyuK-8">
                    <mxGeometry relative="1" as="geometry"/>
                </mxCell>
                <mxCell id="SWPA18qDtEiloS7H6sVU-13" value="Send sample to ThingSpeak" style="whiteSpace=wrap;html=1;" vertex="1" parent="9ZokUizVB9DD7m5dpZID-1">
                    <mxGeometry x="365.5" y="550" width="120" height="60" as="geometry"/>
                </mxCell>
                <mxCell id="SWPA18qDtEiloS7H6sVU-17" value="" style="shape=waypoint;size=6;pointerEvents=1;points=[];fillColor=#2a2a2a;resizable=0;rotatable=0;perimeter=centerPerimeter;snapToPoint=1;rounded=0;" vertex="1" parent="9ZokUizVB9DD7m5dpZID-1">
                    <mxGeometry x="230" y="560" width="40" height="40" as="geometry"/>
                </mxCell>
                <mxCell id="SWPA18qDtEiloS7H6sVU-25" value="" style="endArrow=classic;html=1;exitX=0.5;exitY=1;exitDx=0;exitDy=0;entryX=0.5;entryY=0;entryDx=0;entryDy=0;" edge="1" parent="9ZokUizVB9DD7m5dpZID-1" target="pEAi6ZniOT8bRjCbfyuK-4">
                    <mxGeometry width="50" height="50" relative="1" as="geometry">
                        <mxPoint x="425.5" y="360" as="sourcePoint"/>
                        <mxPoint x="520" y="290" as="targetPoint"/>
                    </mxGeometry>
                </mxCell>
                <mxCell id="SWPA18qDtEiloS7H6sVU-26" value="Initialize &lt;br&gt;SCD41 Sensor" style="shape=parallelogram;perimeter=parallelogramPerimeter;whiteSpace=wrap;html=1;fixedSize=1;" vertex="1" parent="9ZokUizVB9DD7m5dpZID-1">
                    <mxGeometry x="363" y="320" width="120" height="40" as="geometry"/>
                </mxCell>
                <mxCell id="SWPA18qDtEiloS7H6sVU-28" value="" style="edgeStyle=none;html=1;exitX=0.5;exitY=1;exitDx=0;exitDy=0;" edge="1" parent="9ZokUizVB9DD7m5dpZID-1" source="SWPA18qDtEiloS7H6sVU-27" target="SWPA18qDtEiloS7H6sVU-26">
                    <mxGeometry relative="1" as="geometry"/>
                </mxCell>
                <mxCell id="SWPA18qDtEiloS7H6sVU-31" value="" style="edgeStyle=none;html=1;" edge="1" parent="9ZokUizVB9DD7m5dpZID-1" source="SWPA18qDtEiloS7H6sVU-27" target="SWPA18qDtEiloS7H6sVU-30">
                    <mxGeometry relative="1" as="geometry"/>
                </mxCell>
                <mxCell id="SWPA18qDtEiloS7H6sVU-27" value="7-days&lt;br&gt;Elapsed" style="rhombus;whiteSpace=wrap;html=1;" vertex="1" parent="9ZokUizVB9DD7m5dpZID-1">
                    <mxGeometry x="375" y="190" width="100" height="100" as="geometry"/>
                </mxCell>
                <mxCell id="m9OoRYNkUsGErYZgZXsN-3" value="" style="edgeStyle=none;html=1;" edge="1" parent="9ZokUizVB9DD7m5dpZID-1" source="SWPA18qDtEiloS7H6sVU-30">
                    <mxGeometry relative="1" as="geometry">
                        <mxPoint x="162.5" y="240" as="targetPoint"/>
                    </mxGeometry>
                </mxCell>
                <mxCell id="SWPA18qDtEiloS7H6sVU-30" value="Notify User&amp;nbsp;&lt;br&gt;sampling complete" style="whiteSpace=wrap;html=1;" vertex="1" parent="9ZokUizVB9DD7m5dpZID-1">
                    <mxGeometry x="200" y="220" width="120" height="40" as="geometry"/>
                </mxCell>
                <mxCell id="m9OoRYNkUsGErYZgZXsN-0" value="No" style="text;html=1;align=center;verticalAlign=middle;resizable=0;points=[];autosize=1;strokeColor=none;" vertex="1" parent="9ZokUizVB9DD7m5dpZID-1">
                    <mxGeometry x="430" y="290" width="30" height="20" as="geometry"/>
                </mxCell>
                <mxCell id="m9OoRYNkUsGErYZgZXsN-1" value="Yes" style="text;html=1;align=center;verticalAlign=middle;resizable=0;points=[];autosize=1;strokeColor=none;" vertex="1" parent="9ZokUizVB9DD7m5dpZID-1">
                    <mxGeometry x="335" y="220" width="40" height="20" as="geometry"/>
                </mxCell>
                <mxCell id="m9OoRYNkUsGErYZgZXsN-6" value="" style="edgeStyle=none;html=1;" edge="1" parent="9ZokUizVB9DD7m5dpZID-1" source="m9OoRYNkUsGErYZgZXsN-4" target="m9OoRYNkUsGErYZgZXsN-5">
                    <mxGeometry relative="1" as="geometry"/>
                </mxCell>
                <mxCell id="m9OoRYNkUsGErYZgZXsN-4" value="&lt;font style=&quot;font-size: 10px&quot;&gt;Redefine Wake-Up sources for Deep Sleep (External Button)&lt;/font&gt;" style="whiteSpace=wrap;html=1;" vertex="1" parent="9ZokUizVB9DD7m5dpZID-1">
                    <mxGeometry x="37.5" y="215" width="125" height="50" as="geometry"/>
                </mxCell>
                <mxCell id="m9OoRYNkUsGErYZgZXsN-8" value="" style="edgeStyle=none;html=1;entryX=0.5;entryY=0;entryDx=0;entryDy=0;startArrow=none;" edge="1" parent="9ZokUizVB9DD7m5dpZID-1" source="m9OoRYNkUsGErYZgZXsN-13" target="m9OoRYNkUsGErYZgZXsN-9">
                    <mxGeometry relative="1" as="geometry">
                        <mxPoint x="100" y="350" as="targetPoint"/>
                    </mxGeometry>
                </mxCell>
                <mxCell id="m9OoRYNkUsGErYZgZXsN-5" value="Enter Deep Sleep" style="whiteSpace=wrap;html=1;" vertex="1" parent="9ZokUizVB9DD7m5dpZID-1">
                    <mxGeometry x="45" y="290" width="110" height="30" as="geometry"/>
                </mxCell>
                <mxCell id="m9OoRYNkUsGErYZgZXsN-11" value="" style="edgeStyle=none;html=1;" edge="1" parent="9ZokUizVB9DD7m5dpZID-1" source="m9OoRYNkUsGErYZgZXsN-9" target="m9OoRYNkUsGErYZgZXsN-10">
                    <mxGeometry relative="1" as="geometry"/>
                </mxCell>
                <mxCell id="m9OoRYNkUsGErYZgZXsN-14" value="" style="edgeStyle=none;html=1;" edge="1" parent="9ZokUizVB9DD7m5dpZID-1" source="m9OoRYNkUsGErYZgZXsN-9" target="m9OoRYNkUsGErYZgZXsN-13">
                    <mxGeometry relative="1" as="geometry">
                        <mxPoint x="170" y="340" as="targetPoint"/>
                        <Array as="points">
                            <mxPoint x="170" y="395"/>
                            <mxPoint x="170" y="340"/>
                        </Array>
                    </mxGeometry>
                </mxCell>
                <mxCell id="m9OoRYNkUsGErYZgZXsN-9" value="Button&amp;nbsp;&lt;br&gt;pressed&lt;br&gt;" style="rhombus;whiteSpace=wrap;html=1;" vertex="1" parent="9ZokUizVB9DD7m5dpZID-1">
                    <mxGeometry x="65" y="360" width="70" height="70" as="geometry"/>
                </mxCell>
                <mxCell id="m9OoRYNkUsGErYZgZXsN-10" value="Initialize" style="ellipse;whiteSpace=wrap;html=1;" vertex="1" parent="9ZokUizVB9DD7m5dpZID-1">
                    <mxGeometry x="61.25" y="460" width="77.5" height="35" as="geometry"/>
                </mxCell>
                <mxCell id="m9OoRYNkUsGErYZgZXsN-13" value="" style="shape=waypoint;size=6;pointerEvents=1;points=[];fillColor=#2a2a2a;resizable=0;rotatable=0;perimeter=centerPerimeter;snapToPoint=1;" vertex="1" parent="9ZokUizVB9DD7m5dpZID-1">
                    <mxGeometry x="80" y="320" width="40" height="40" as="geometry"/>
                </mxCell>
                <mxCell id="m9OoRYNkUsGErYZgZXsN-15" value="" style="edgeStyle=none;html=1;entryDx=0;entryDy=0;endArrow=none;" edge="1" parent="9ZokUizVB9DD7m5dpZID-1" source="m9OoRYNkUsGErYZgZXsN-5" target="m9OoRYNkUsGErYZgZXsN-13">
                    <mxGeometry relative="1" as="geometry">
                        <mxPoint x="100" y="320" as="sourcePoint"/>
                        <mxPoint x="100" y="360" as="targetPoint"/>
                    </mxGeometry>
                </mxCell>
                <mxCell id="m9OoRYNkUsGErYZgZXsN-16" value="Yes" style="text;html=1;align=center;verticalAlign=middle;resizable=0;points=[];autosize=1;strokeColor=none;" vertex="1" parent="9ZokUizVB9DD7m5dpZID-1">
                    <mxGeometry x="100" y="430" width="40" height="20" as="geometry"/>
                </mxCell>
                <mxCell id="m9OoRYNkUsGErYZgZXsN-17" value="No" style="text;html=1;align=center;verticalAlign=middle;resizable=0;points=[];autosize=1;strokeColor=none;" vertex="1" parent="9ZokUizVB9DD7m5dpZID-1">
                    <mxGeometry x="175" y="370" width="30" height="20" as="geometry"/>
                </mxCell>
            </root>
        </mxGraphModel>
    </diagram>
</mxfile>